<svg width="41" height="42" viewBox="0 0 41 42" fill="none" xmlns="http://www.w3.org/2000/svg">
    <rect x="0.5" y="1" width="40" height="40" rx="5.5" stroke="#D7DFEA" />
    <path
        d="M27.1251 32.1979H13.823C12.2396 32.1979 10.7917 31.3958 9.9584 30.0416C9.12506 28.6874 9.05215 27.0416 9.76048 25.6145L11.5521 22.0208C12.1355 20.8541 13.073 20.1249 14.1251 20.0104C15.1771 19.8958 16.2501 20.4166 17.0626 21.427L17.2917 21.7187C17.7501 22.2812 18.2813 22.5833 18.8021 22.5312C19.323 22.4895 19.8021 22.1145 20.1563 21.4791L22.1251 17.927C22.9376 16.4583 24.0209 15.6979 25.198 15.7499C26.3646 15.8124 27.3646 16.6874 28.0313 18.2291L31.2917 25.8437C31.8959 27.2499 31.7501 28.8541 30.9063 30.1354C30.073 31.4374 28.6563 32.1979 27.1251 32.1979ZM14.4167 21.5729C14.3751 21.5729 14.3334 21.5729 14.2917 21.5833C13.7709 21.6354 13.2917 22.052 12.948 22.7291L11.1563 26.3229C10.6876 27.2499 10.7396 28.3437 11.2813 29.2291C11.823 30.1145 12.7813 30.6458 13.823 30.6458H27.1146C28.1355 30.6458 29.0417 30.1562 29.6042 29.302C30.1667 28.4479 30.2605 27.427 29.8542 26.4895L26.5938 18.8749C26.198 17.9374 25.6459 17.3645 25.1146 17.3437C24.6251 17.3124 23.9896 17.8333 23.4896 18.7187L21.5209 22.2708C20.9167 23.3541 19.9688 24.0312 18.9376 24.1249C17.9063 24.2083 16.8542 23.7083 16.073 22.7291L15.8438 22.4374C15.4063 21.8645 14.9063 21.5729 14.4167 21.5729Z"
        fill="#D7DFEA" />
    <path
        d="M15.2605 17.6146C13.1147 17.6146 11.3542 15.8646 11.3542 13.7084C11.3542 11.5521 13.1042 9.80212 15.2605 9.80212C17.4167 9.80212 19.1667 11.5521 19.1667 13.7084C19.1667 15.8646 17.4167 17.6146 15.2605 17.6146ZM15.2605 11.3646C13.9688 11.3646 12.9167 12.4167 12.9167 13.7084C12.9167 15 13.9688 16.0521 15.2605 16.0521C16.5522 16.0521 17.6042 15 17.6042 13.7084C17.6042 12.4167 16.5522 11.3646 15.2605 11.3646Z"
        fill="#D7DFEA" />
</svg>