<svg width="107" height="100" viewBox="0 0 107 100" fill="none" xmlns="http://www.w3.org/2000/svg">
<path d="M25.75 43.2168C25.75 41.6185 25.75 40.8193 25.9751 40.177C26.3773 39.0295 27.2795 38.1272 28.427 37.7251C29.0694 37.5 29.8685 37.5 31.4668 37.5V37.5C32.4925 37.5 33.0053 37.5 33.4693 37.3876C34.2952 37.1876 35.0358 36.7298 35.584 36.0806C35.8921 35.7158 36.1214 35.2572 36.5801 34.3398L40.0611 27.3778C40.599 26.3019 40.868 25.764 41.3513 25.4653C41.8346 25.1666 42.436 25.1666 43.6388 25.1666H63.3612C64.564 25.1666 65.1654 25.1666 65.6487 25.4653C66.132 25.764 66.401 26.3019 66.9389 27.3778L70.4199 34.3398C70.8786 35.2572 71.1079 35.7158 71.416 36.0806C71.9642 36.7298 72.7048 37.1876 73.5307 37.3876C73.9947 37.5 74.5075 37.5 75.5332 37.5V37.5C77.1315 37.5 77.9306 37.5 78.573 37.7251C79.7205 38.1272 80.6227 39.0295 81.0249 40.177C81.25 40.8193 81.25 41.6185 81.25 43.2168V68.5C81.25 71.3284 81.25 72.7426 80.3713 73.6213C79.4926 74.5 78.0784 74.5 75.25 74.5H31.75C28.9216 74.5 27.5074 74.5 26.6287 73.6213C25.75 72.7426 25.75 71.3284 25.75 68.5V43.2168Z" stroke="url(#paint0_linear_200_729)" stroke-width="3"/>
<circle cx="53.75" cy="54.75" r="10.5" stroke="url(#paint1_linear_200_729)" stroke-width="3"/>
<defs>
<linearGradient id="paint0_linear_200_729" x1="53.5" y1="25.1666" x2="53.5" y2="74.5" gradientUnits="userSpaceOnUse">
<stop stop-color="#F1607D"/>
<stop offset="1" stop-color="#F37768"/>
</linearGradient>
<linearGradient id="paint1_linear_200_729" x1="53.75" y1="42.75" x2="53.75" y2="66.75" gradientUnits="userSpaceOnUse">
<stop stop-color="#F1607D"/>
<stop offset="1" stop-color="#F37768"/>
</linearGradient>
</defs>
</svg>
